# xmcd CD database file
#
# Track frame offsets:
#	150
#	12978
#	22778
#	37191
#	49765
#	58545
#	72654
#	83046
#	93285
#	103642
#	114982
#
# Disc length: 1689 seconds
#
# Revision: 3
# Processed by: cddbd v1.5.2PL0 Copyright (c) Steve Scherf et al.
# Submitted via: CDex 1.70beta2
#
DISCID=8606970b
DTITLE=Alpert , Herb and The Tijuana Brass - Sounds Like (6-1967) - Sounds Like
DYEAR=1967
DGENRE=Instrumental Pop
TTITLE0=Gotta Lotta Livin' To Do (Strouse-Adams)
TTITLE1=Lady Godiva (Leander-Mills)
TTITLE2=Bo-Bo (Sol Lake)
TTITLE3=Shades Of Blue (Wetcher)
TTITLE4=In A Little Spanish Town (Wayne-Lewis-Young)
TTITLE5=Wade In The Water (Alpert-Edmonson)
TTITLE6=Town Without Pity (Tiomkin-Washington)
TTITLE7=The Charmer (John Pisano)
TTITLE8=Treasure Of San Miguel (Roger Nichols)
TTITLE9=Miss Frenchy Brown (Ervan Coloeman)
TTITLE10=Casino Royale
EXTD=YEAR: 1967
EXTT0=
EXTT1=
EXTT2=
EXTT3=
EXTT4=
EXTT5=
EXTT6=
EXTT7=
EXTT8=
EXTT9=
EXTT10=
PLAYORDER=
